<svg width="17" height="19" viewBox="0 0 17 19" fill="none" xmlns="http://www.w3.org/2000/svg">
<path d="M6.21875 6.875V3.59375C6.21875 3.07161 6.42617 2.57085 6.79538 2.20163C7.1646 1.83242 7.66536 1.625 8.1875 1.625H13.4375C13.9596 1.625 14.4604 1.83242 14.8296 2.20163C15.1988 2.57085 15.4062 3.07161 15.4062 3.59375V15.4062C15.4062 15.9284 15.1988 16.4292 14.8296 16.7984C14.4604 17.1676 13.9596 17.375 13.4375 17.375H8.1875C7.66536 17.375 7.1646 17.1676 6.79538 16.7984C6.42617 16.4292 6.21875 15.9284 6.21875 15.4062V12.125M3.59375 12.125L0.96875 9.5M0.96875 9.5L3.59375 6.875M0.96875 9.5H12.125" stroke="#ACACAC" stroke-width="1.5" stroke-linecap="round" stroke-linejoin="round"/>
</svg>
