<svg width="171" height="171" viewBox="0 0 171 171" fill="none" xmlns="http://www.w3.org/2000/svg">
<path d="M111 0C144.137 0 171 26.8629 171 60V111C171 144.137 144.137 171 111 171H60C26.8629 171 2.41629e-07 144.137 0 111V60C0 26.8629 26.8629 2.41598e-07 60 0H111Z" fill="#4248F5"/>
<path d="M86.1055 105.459L46.9998 66.3536" stroke="#A2A5FF" stroke-width="15" stroke-linecap="round"/>
<path d="M71.459 120L125.459 66" stroke="#DCDDFF" stroke-width="15" stroke-linecap="round"/>
<mask id="path-4-inside-1_182_2" fill="white">
<path d="M91 36C118.614 36 141 58.3858 141 86V115C141 126.046 132.046 135 121 135H75.4707C47.5966 135 25 112.403 25 84.5293C25.0001 57.7273 46.7273 36.0001 73.5293 36H91Z"/>
</mask>
<path d="M91 36V21V36ZM141 115H156H141ZM121 135V150V135ZM25 84.5293L10 84.5293V84.5293H25ZM73.5293 36V21H73.5293L73.5293 36ZM91 36V51C110.33 51 126 66.67 126 86H141H156C156 50.1015 126.899 21 91 21V36ZM141 86H126V115H141H156V86H141ZM141 115H126C126 117.761 123.761 120 121 120V135V150C140.33 150 156 134.33 156 115H141ZM121 135V120H75.4707V135V150H121V135ZM75.4707 135V120C55.8808 120 40 104.119 40 84.5293H25H10C10 120.688 39.3123 150 75.4707 150V135ZM25 84.5293L40 84.5293C40 66.0116 55.0116 51 73.5293 51L73.5293 36L73.5293 21C38.4431 21.0001 10.0001 49.4431 10 84.5293L25 84.5293ZM73.5293 36V51H91V36V21H73.5293V36Z" fill="white" mask="url(#path-4-inside-1_182_2)"/>
</svg>
